<?xml version="1.0" encoding="UTF-8"?>
<svg xmlns="http://www.w3.org/2000/svg" xmlns:xlink="http://www.w3.org/1999/xlink" width="400" height="400" viewBox="100 470 400 400">
<path fill-rule="nonzero" fill="rgb(100%, 100%, 100%)" fill-opacity="1" d="M 483.699219 658.695312 C 483.699219 761.316406 400.507812 844.503906 297.886719 844.503906 C 195.265625 844.503906 112.074219 761.316406 112.074219 658.695312 C 112.074219 556.074219 195.265625 472.882812 297.886719 472.882812 C 400.507812 472.882812 483.699219 556.074219 483.699219 658.695312 "/>
<path fill-rule="nonzero" fill="rgb(93.725586%, 84.313965%, 81.568909%)" fill-opacity="1" d="M 188.859375 562.578125 L 192.632812 559.390625 C 194.71875 557.628906 196.945312 556.023438 199.289062 554.582031 L 203.359375 552.089844 C 208.40625 548.964844 219.84375 544.683594 226.632812 542.996094 L 238.421875 540.21875 C 241.828125 539.4375 248.371094 538.363281 251.445312 538.007812 L 260.179688 536.734375 C 260.535156 536.695312 271.53125 535.703125 271.890625 535.6875 L 282.496094 534.800781 L 290.601562 534.523438 L 297.660156 534.425781 C 309.125 534.425781 333.042969 534.53125 357.335938 538.988281 C 371.046875 541.503906 391.839844 549.34375 391.839844 549.34375 C 391.839844 549.34375 398.171875 552.523438 401.910156 554.566406 C 402.257812 554.757812 402.605469 554.964844 402.9375 555.179688 L 407.203125 557.949219 C 407.800781 558.335938 408.363281 558.761719 408.898438 559.222656 L 412.402344 562.269531 C 412.820312 562.628906 413.214844 563.011719 413.585938 563.414062 L 417.375 567.519531 C 417.855469 568.039062 418.296875 568.59375 418.691406 569.171875 L 421.664062 573.511719 C 422.214844 574.316406 422.683594 575.171875 423.054688 576.0625 L 427.753906 587.304688 C 427.980469 587.847656 428.171875 588.394531 428.328125 588.960938 C 439.402344 629.050781 460.777344 712.6875 421.398438 737.523438 C 420.796875 737.902344 420.40625 738.257812 419.648438 738.75 C 417.785156 739.945312 412.890625 743.503906 403.246094 747.726562 C 393.792969 751.871094 376.652344 755.726562 371.21875 756.960938 C 367.039062 757.910156 363.445312 758.410156 360.414062 758.859375 C 355.261719 759.621094 351.757812 759.808594 350.667969 760.007812 C 350.359375 760.0625 350.066406 760.109375 349.757812 760.144531 C 339.613281 761.375 315.535156 762.320312 306.21875 762.320312 L 277.460938 762.175781 C 276.964844 762.171875 276.472656 762.148438 275.980469 762.097656 L 268.296875 761.875 L 254.808594 760.921875 L 243.902344 759.972656 C 243.617188 759.945312 238.3125 759.273438 238.027344 759.230469 C 234.171875 758.652344 232.609375 758.339844 227.359375 757.128906 C 222.21875 755.941406 217.761719 754.433594 213.949219 753.414062 C 213.507812 753.296875 213.082031 753.160156 212.65625 753.003906 L 199.132812 748.085938 C 198.546875 747.871094 197.972656 747.625 197.417969 747.34375 L 191.40625 744.492188 L 185.445312 741.308594 C 185.027344 741.097656 184.617188 740.871094 184.21875 740.628906 C 151.519531 720.515625 154.566406 682.042969 159.664062 644.902344 C 159.710938 644.566406 159.769531 644.234375 159.839844 643.902344 L 167.4375 608.050781 C 167.507812 607.71875 167.59375 607.382812 167.691406 607.054688 C 169.90625 599.457031 170.882812 594.417969 172.316406 589.578125 C 173.59375 585.273438 175.230469 581.125 178.417969 575.472656 C 179.996094 572.675781 185.214844 565.640625 188.859375 562.578125 "/>
<path fill="none" stroke-width="4" stroke-linecap="butt" stroke-linejoin="miter" stroke="rgb(13.725281%, 12.156677%, 12.548828%)" stroke-opacity="1" stroke-miterlimit="10" d="M 0.000544557 0.00130645 C 0.000544557 -16.796443 13.614739 -30.410637 30.408577 -30.410637 C 47.206326 -30.410637 60.82052 -16.796443 60.82052 0.00130645 C 60.82052 16.795145 47.206326 30.409339 30.408577 30.409339 C 13.614739 30.409339 0.000544557 16.795145 0.000544557 0.00130645 Z M 0.000544557 0.00130645 " transform="matrix(0.998785, 0, 0, -0.998785, 332.124456, 634.087242)"/>
<path fill-rule="nonzero" fill="rgb(100%, 100%, 100%)" fill-opacity="1" d="M 332.125 634.085938 C 332.125 650.863281 345.722656 664.460938 362.496094 664.460938 C 379.273438 664.460938 392.871094 650.863281 392.871094 634.085938 C 392.871094 617.3125 379.273438 603.714844 362.496094 603.714844 C 345.722656 603.714844 332.125 617.3125 332.125 634.085938 "/>
<path fill-rule="nonzero" fill="rgb(13.725281%, 12.156677%, 12.548828%)" fill-opacity="1" d="M 329.804688 634.046875 C 329.804688 650.363281 342.578125 663.589844 358.335938 663.589844 C 374.09375 663.589844 386.871094 650.363281 386.871094 634.046875 C 386.871094 617.730469 374.09375 604.503906 358.335938 604.503906 C 342.578125 604.503906 329.804688 617.730469 329.804688 634.046875 "/>
<path fill-rule="nonzero" fill="rgb(100%, 100%, 100%)" fill-opacity="1" d="M 370.683594 641.78125 L 371.78125 644.753906 L 374.757812 645.855469 L 371.78125 646.953125 L 370.683594 649.929688 L 369.582031 646.953125 L 366.609375 645.855469 L 369.582031 644.753906 Z M 370.683594 641.78125 "/>
<path fill-rule="nonzero" fill="rgb(100%, 100%, 100%)" fill-opacity="1" d="M 359.496094 623.464844 L 362.519531 631.628906 L 370.683594 634.648438 L 362.519531 637.667969 L 359.496094 645.832031 L 356.476562 637.667969 L 348.3125 634.648438 L 356.476562 631.628906 Z M 359.496094 623.464844 "/>
<path fill-rule="nonzero" fill="rgb(100%, 100%, 100%)" fill-opacity="1" d="M 354.515625 623.445312 C 354.515625 627.636719 351.113281 631.035156 346.921875 631.035156 C 342.726562 631.035156 339.328125 627.636719 339.328125 623.445312 C 339.328125 619.25 342.726562 615.851562 346.921875 615.851562 C 351.113281 615.851562 354.515625 619.25 354.515625 623.445312 "/>
<path fill="none" stroke-width="4" stroke-linecap="butt" stroke-linejoin="miter" stroke="rgb(13.725281%, 12.156677%, 12.548828%)" stroke-opacity="1" stroke-miterlimit="10" d="M -0.00178001 -0.00131457 C -0.00178001 -16.795153 -13.615974 -30.409347 -30.409812 -30.409347 C -47.20365 -30.409347 -60.821756 -16.795153 -60.821756 -0.00131457 C -60.821756 16.796435 -47.20365 30.410629 -30.409812 30.410629 C -13.615974 30.410629 -0.00178001 16.796435 -0.00178001 -0.00131457 Z M -0.00178001 -0.00131457 " transform="matrix(0.998785, 0, 0, -0.998785, 259.716622, 634.127593)"/>
<path fill-rule="nonzero" fill="rgb(100%, 100%, 100%)" fill-opacity="1" d="M 259.714844 634.128906 C 259.714844 650.902344 246.117188 664.5 229.34375 664.5 C 212.570312 664.5 198.96875 650.902344 198.96875 634.128906 C 198.96875 617.351562 212.570312 603.753906 229.34375 603.753906 C 246.117188 603.753906 259.714844 617.351562 259.714844 634.128906 "/>
<path fill-rule="nonzero" fill="rgb(13.725281%, 12.156677%, 12.548828%)" fill-opacity="1" d="M 262.035156 634.085938 C 262.035156 650.402344 249.410156 663.628906 233.832031 663.628906 C 218.257812 663.628906 205.632812 650.402344 205.632812 634.085938 C 205.632812 617.769531 218.257812 604.546875 233.832031 604.546875 C 249.410156 604.546875 262.035156 617.769531 262.035156 634.085938 "/>
<path fill-rule="nonzero" fill="rgb(100%, 100%, 100%)" fill-opacity="1" d="M 243.835938 641.78125 L 244.9375 644.753906 L 247.910156 645.855469 L 244.9375 646.953125 L 243.835938 649.929688 L 242.734375 646.953125 L 239.761719 645.855469 L 242.734375 644.753906 Z M 243.835938 641.78125 "/>
<path fill-rule="nonzero" fill="rgb(100%, 100%, 100%)" fill-opacity="1" d="M 232.652344 623.445312 L 235.671875 631.609375 L 243.835938 634.628906 L 235.671875 637.648438 L 232.652344 645.8125 L 229.628906 637.648438 L 221.46875 634.628906 L 229.628906 631.609375 Z M 232.652344 623.445312 "/>
<path fill-rule="nonzero" fill="rgb(100%, 100%, 100%)" fill-opacity="1" d="M 227.324219 623.445312 C 227.324219 627.636719 223.925781 631.035156 219.734375 631.035156 C 215.539062 631.035156 212.140625 627.636719 212.140625 623.445312 C 212.140625 619.25 215.539062 615.851562 219.734375 615.851562 C 223.925781 615.851562 227.324219 619.25 227.324219 623.445312 "/>
<path fill-rule="nonzero" fill="rgb(88.235474%, 69.804382%, 64.31427%)" fill-opacity="1" d="M 367.453125 693.777344 C 368.101562 699.660156 377.320312 703.472656 388.042969 702.289062 C 398.765625 701.109375 406.933594 695.378906 406.285156 689.496094 C 405.636719 683.609375 396.417969 679.796875 385.695312 680.980469 C 374.96875 682.160156 366.800781 687.890625 367.453125 693.777344 "/>
<path fill="none" stroke-width="1" stroke-linecap="butt" stroke-linejoin="miter" stroke="rgb(84.313965%, 68.62793%, 64.31427%)" stroke-opacity="1" stroke-miterlimit="10" d="M 0.00153713 -0.00149903 C 0.650763 -5.891466 9.880726 -9.708603 20.616423 -8.52357 C 31.352121 -7.342448 39.530024 -1.605009 38.880798 4.284958 C 38.231571 10.178836 29.001609 13.995973 18.265912 12.81094 C 7.526303 11.629818 -0.6516 5.892379 0.00153713 -0.00149903 Z M 0.00153713 -0.00149903 " transform="matrix(0.998785, 0, 0, -0.998785, 367.45159, 693.775847)"/>
<path fill-rule="nonzero" fill="rgb(88.235474%, 69.804382%, 64.31427%)" fill-opacity="1" d="M 227.089844 693.777344 C 226.441406 699.660156 217.222656 703.472656 206.496094 702.289062 C 195.773438 701.109375 187.605469 695.378906 188.253906 689.496094 C 188.902344 683.609375 198.121094 679.796875 208.847656 680.980469 C 219.570312 682.160156 227.738281 687.890625 227.089844 693.777344 "/>
<path fill="none" stroke-width="1" stroke-linecap="butt" stroke-linejoin="miter" stroke="rgb(84.313965%, 68.62793%, 64.31427%)" stroke-opacity="1" stroke-miterlimit="10" d="M 0.000140081 -0.00149903 C -0.649086 -5.891466 -9.879048 -9.708603 -20.618657 -8.52357 C -31.354355 -7.342448 -39.532257 -1.605009 -38.883031 4.284958 C -38.233805 10.178836 -29.003843 13.995973 -18.264234 12.81094 C -7.528537 11.629818 0.649366 5.892379 0.000140081 -0.00149903 Z M 0.000140081 -0.00149903 " transform="matrix(0.998785, 0, 0, -0.998785, 227.089704, 693.775847)"/>
<path fill="none" stroke-width="6" stroke-linecap="butt" stroke-linejoin="miter" stroke="rgb(13.725281%, 12.156677%, 12.548828%)" stroke-opacity="1" stroke-miterlimit="10" d="M 0.000435431 0.00162463 C 0.000435431 -7.550518 -8.267421 -13.667324 -18.467311 -13.667324 C -28.542049 -13.667324 -36.735596 -7.605272 -36.931147 -0.182192 C -36.935058 -0.0922394 -36.935058 -0.0922394 -36.935058 0.00162463 C -36.935058 2.739325 -37.365268 0.92071 -36.598711 -2.610924 C -36.00815 -5.309515 -34.009629 -7.593539 -32.781575 -8.637776 C -31.354059 -9.850187 -29.375093 -11.203393 -27.106712 -12.083368 C -24.267325 -13.186271 -21.021195 -13.667324 -18.467311 -13.667324 C -14.356849 -13.667324 -7.766812 -11.985593 -4.348598 -8.809861 C -3.69546 -8.207566 -3.0697 -7.577895 -2.60038 -6.999067 C -1.446635 -5.575463 -0.80132 -4.261366 -0.382843 -2.775186 C 0.395447 -0.0335744 0.000435431 2.559419 0.000435431 0.00162463 Z M 0.000435431 0.00162463 " transform="matrix(0.998785, 0, 0, -0.998785, 315.112846, 682.798498)"/>
<path fill-rule="nonzero" fill="rgb(90.588379%, 90.98053%, 91.372681%)" fill-opacity="1" d="M 300.417969 497.671875 C 300.417969 499.070312 299.285156 500.203125 297.886719 500.203125 C 296.488281 500.203125 295.355469 499.070312 295.355469 497.671875 C 295.355469 496.273438 296.488281 495.140625 297.886719 495.140625 C 299.285156 495.140625 300.417969 496.273438 300.417969 497.671875 "/>
<path fill="none" stroke-width="0.25" stroke-linecap="butt" stroke-linejoin="miter" stroke="rgb(84.313965%, 68.62793%, 64.31427%)" stroke-opacity="1" stroke-miterlimit="10" d="M -0.000338798 0.000581533 C -0.000338798 -4.446227 -3.602371 -8.048258 -8.049179 -8.048258 C -12.495987 -8.048258 -16.098019 -4.446227 -16.098019 0.000581533 C -16.098019 4.44739 -12.495987 8.049421 -8.049179 8.049421 C -3.602371 8.049421 -0.000338798 4.44739 -0.000338798 0.000581533 Z M -0.000338798 0.000581533 " transform="matrix(0.998785, 0, 0, -0.998785, 305.92612, 497.672456)"/>
</svg>
