<svg xmlns="http://www.w3.org/2000/svg" width="207.3910" height="207.3920" viewBox="193.8045 316.8039 207.3910 207.3920">
<path d="M 200.6645 432.9219 C 193.8045 379.4409 231.5975 330.5249 285.0785 323.6649 C 338.5595 316.8039 387.4755 354.5979 394.3355 408.0789 C 401.1955 461.5589 363.4025 510.4749 309.9215 517.3359 C 256.4405 524.1959 207.5245 486.4029 200.6645 432.9219" fill="#e7c5ab" stroke="none"/>
<path d="M 395.129 420.5002 C 395.129 474.4192 351.419 518.1292 297.5 518.1292 C 243.581 518.1292 199.871 474.4192 199.871 420.5002 C 199.871 366.5812 243.581 322.8712 297.5 322.8712 C 351.419 322.8712 395.129 366.5812 395.129 420.5002" fill="#ffffff" stroke="none"/>
<path d="M 240.103 369.9942 L 242.086 368.3182 C 243.181 367.3922 244.35 366.5482 245.583 365.7922 L 247.721 364.4822 C 250.374 362.8392 256.384 360.5902 259.951 359.7042 L 266.146 358.2432 C 267.937 357.8342 271.374 357.2692 272.99 357.0832 L 277.58 356.4142 C 277.767 356.3922 283.546 355.8722 283.733 355.8622 L 289.307 355.3972 L 293.566 355.2502 L 297.274 355.2002 C 303.299 355.2002 315.868 355.2552 328.634 357.5972 C 335.838 358.9202 346.763 363.0392 346.763 363.0392 C 346.763 363.0392 350.093 364.7092 352.056 365.7832 C 352.239 365.8832 352.422 365.9932 352.596 366.1062 L 354.837 367.5612 C 355.15 367.7642 355.448 367.9882 355.727 368.2312 L 357.57 369.8302 C 357.788 370.0202 357.996 370.2212 358.191 370.4332 L 360.182 372.5892 C 360.434 372.8632 360.666 373.1532 360.875 373.4582 L 362.437 375.7382 C 362.726 376.1612 362.971 376.6102 363.167 377.0792 L 365.636 382.9872 C 365.755 383.2732 365.855 383.5602 365.937 383.8572 C 371.758 404.9232 382.99 448.8722 362.297 461.9222 C 361.979 462.1232 361.776 462.3102 361.377 462.5672 C 360.399 463.1962 357.826 465.0662 352.758 467.2862 C 347.79 469.4622 338.784 471.4882 335.929 472.1362 C 333.732 472.6352 331.843 472.8982 330.25 473.1342 C 327.542 473.5352 325.702 473.6342 325.129 473.7382 C 324.968 473.7672 324.814 473.7912 324.651 473.8112 C 319.32 474.4572 306.669 474.9532 301.773 474.9532 L 286.661 474.8772 C 286.401 474.8752 286.141 474.8622 285.882 474.8372 L 281.846 474.7182 L 274.757 474.2192 L 269.027 473.7212 C 268.876 473.7062 266.088 473.3522 265.939 473.3292 C 263.913 473.0252 263.092 472.8612 260.332 472.2242 C 257.633 471.6012 255.289 470.8092 253.287 470.2742 C 253.056 470.2122 252.831 470.1402 252.607 470.0582 L 245.502 467.4742 C 245.193 467.3612 244.891 467.2312 244.599 467.0842 L 241.441 465.5842 L 238.308 463.9112 C 238.089 463.8012 237.873 463.6822 237.665 463.5542 C 220.482 452.9852 222.083 432.7692 224.762 413.2532 C 224.786 413.0772 224.817 412.9022 224.854 412.7282 L 228.847 393.8872 C 228.884 393.7132 228.929 393.5362 228.979 393.3642 C 230.143 389.3722 230.656 386.7252 231.41 384.1822 C 232.08 381.9202 232.94 379.7402 234.616 376.7682 C 235.444 375.3002 238.187 371.6022 240.103 369.9942" fill="#f3d8dc" stroke="none"/>
<path d="M 315.385 407.5699 C 315.385 416.3849 322.531 423.5299 331.345 423.5299 C 340.16 423.5299 347.306 416.3849 347.306 407.5699 C 347.306 398.7549 340.16 391.6099 331.345 391.6099 C 322.531 391.6099 315.385 398.7549 315.385 407.5699 Z" fill="none" stroke="#000000" stroke-width="4" stroke-linecap="butt" stroke-linejoin="miter"/>
<path d="M 315.385 407.5699 C 315.385 416.3849 322.531 423.5299 331.345 423.5299 C 340.16 423.5299 347.306 416.3849 347.306 407.5699 C 347.306 398.7549 340.16 391.6099 331.345 391.6099 C 322.531 391.6099 315.385 398.7549 315.385 407.5699" fill="#ffffff" stroke="none"/>
<path d="M 314.166 407.5487 C 314.166 416.1227 320.879 423.0727 329.159 423.0727 C 337.439 423.0727 344.152 416.1227 344.152 407.5487 C 344.152 398.9747 337.439 392.0247 329.159 392.0247 C 320.879 392.0247 314.166 398.9747 314.166 407.5487" fill="#000000" stroke="none"/>
<path d="M 335.6463 411.6121 L 336.2243 413.1751 L 337.7873 413.7531 L 336.2243 414.3311 L 335.6463 415.8941 L 335.0683 414.3311 L 333.5053 413.7531 L 335.0683 413.1751 Z" fill="#ffffff" stroke="none"/>
<path d="M 329.769 401.9876 L 331.356 406.2776 L 335.646 407.8646 L 331.356 409.4526 L 329.769 413.7426 L 328.182 409.4526 L 323.892 407.8646 L 328.182 406.2776 Z" fill="#ffffff" stroke="none"/>
<path d="M 327.1507 401.977 C 327.1507 404.181 325.3647 405.967 323.1607 405.967 C 320.9567 405.967 319.1707 404.181 319.1707 401.977 C 319.1707 399.773 320.9567 397.987 323.1607 397.987 C 325.3647 397.987 327.1507 399.773 327.1507 401.977" fill="#ffffff" stroke="none"/>
<path d="M 277.3363 407.5911 C 277.3363 416.4061 270.1903 423.5511 261.3763 423.5511 C 252.5613 423.5511 245.4153 416.4061 245.4153 407.5911 C 245.4153 398.7761 252.5613 391.6311 261.3763 391.6311 C 270.1903 391.6311 277.3363 398.7761 277.3363 407.5911 Z" fill="none" stroke="#000000" stroke-width="4" stroke-linecap="butt" stroke-linejoin="miter"/>
<path d="M 277.3363 407.5911 C 277.3363 416.4061 270.1903 423.5511 261.3763 423.5511 C 252.5613 423.5511 245.4153 416.4061 245.4153 407.5911 C 245.4153 398.7761 252.5613 391.6311 261.3763 391.6311 C 270.1903 391.6311 277.3363 398.7761 277.3363 407.5911" fill="#ffffff" stroke="none"/>
<path d="M 278.5554 407.5699 C 278.5554 416.1439 271.9204 423.0939 263.7354 423.0939 C 255.5514 423.0939 248.9164 416.1439 248.9164 407.5699 C 248.9164 398.9959 255.5514 392.0459 263.7354 392.0459 C 271.9204 392.0459 278.5554 398.9959 278.5554 407.5699" fill="#000000" stroke="none"/>
<path d="M 268.9918 411.6121 L 269.5698 413.1751 L 271.1328 413.7531 L 269.5698 414.3311 L 268.9918 415.8941 L 268.4138 414.3311 L 266.8508 413.7531 L 268.4138 413.1751 Z" fill="#ffffff" stroke="none"/>
<path d="M 263.1144 401.9769 L 264.7014 406.2669 L 268.9914 407.8539 L 264.7014 409.4419 L 263.1144 413.7319 L 261.5274 409.4419 L 257.2374 407.8539 L 261.5274 406.2669 Z" fill="#ffffff" stroke="none"/>
<path d="M 260.3153 401.977 C 260.3153 404.181 258.5293 405.967 256.3253 405.967 C 254.1213 405.967 252.3353 404.181 252.3353 401.977 C 252.3353 399.773 254.1213 397.987 256.3253 397.987 C 258.5293 397.987 260.3153 399.773 260.3153 401.977" fill="#ffffff" stroke="none"/>
<path d="M 333.9486 438.9349 C 334.2896 442.0269 339.1336 444.0309 344.7696 443.4089 C 350.4046 442.7879 354.6956 439.7779 354.3556 436.6849 C 354.0146 433.5929 349.1696 431.5899 343.5346 432.2109 C 337.8996 432.8319 333.6076 435.8429 333.9486 438.9349" fill="#e5adb0" stroke="none"/>
<path d="M 333.9486 438.9349 C 334.2896 442.0269 339.1336 444.0309 344.7696 443.4089 C 350.4046 442.7879 354.6956 439.7779 354.3556 436.6849 C 354.0146 433.5929 349.1696 431.5899 343.5346 432.2109 C 337.8996 432.8319 333.6076 435.8429 333.9486 438.9349 Z" fill="none" stroke="#d9adb0" stroke-width="1" stroke-linecap="butt" stroke-linejoin="miter"/>
<path d="M 260.1916 438.9349 C 259.8506 442.0269 255.0066 444.0309 249.3706 443.4089 C 243.7356 442.7879 239.4446 439.7779 239.7846 436.6849 C 240.1256 433.5929 244.9706 431.5899 250.6056 432.2109 C 256.2406 432.8319 260.5326 435.8429 260.1916 438.9349" fill="#e5adb0" stroke="none"/>
<path d="M 260.1916 438.9349 C 259.8506 442.0269 255.0066 444.0309 249.3706 443.4089 C 243.7356 442.7879 239.4446 439.7779 239.7846 436.6849 C 240.1256 433.5929 244.9706 431.5899 250.6056 432.2109 C 256.2406 432.8319 260.5326 435.8429 260.1916 438.9349 Z" fill="none" stroke="#d9adb0" stroke-width="1" stroke-linecap="butt" stroke-linejoin="miter"/>
<path d="M 306.4458 433.1666 C 306.4458 437.1286 302.1068 440.3406 296.7538 440.3406 C 291.4658 440.3406 287.1658 437.1586 287.0618 433.2636 C 287.0608 433.2146 287.0608 433.2146 287.0608 433.1666 C 287.0608 431.7276 286.8348 432.6836 287.2378 434.5376 C 287.5468 435.9536 288.5968 437.1526 289.2408 437.6996 C 289.9908 438.3366 291.0278 439.0476 292.2198 439.5086 C 293.7098 440.0866 295.4118 440.3406 296.7538 440.3406 C 298.9108 440.3406 302.3698 439.4576 304.1638 437.7916 C 304.5058 437.4736 304.8338 437.1446 305.0808 436.8406 C 305.6858 436.0926 306.0248 435.4036 306.2458 434.6236 C 306.6528 433.1836 306.4458 431.8236 306.4458 433.1666 Z" fill="none" stroke="#000000" stroke-width="6" stroke-linecap="butt" stroke-linejoin="miter"/>
<path d="M 298.7236 335.8869 C 298.7236 336.6219 298.1286 337.2169 297.3936 337.2169 C 296.6586 337.2169 296.0636 336.6219 296.0636 335.8869 C 296.0636 335.1519 296.6586 334.5569 297.3936 334.5569 C 298.1286 334.5569 298.7236 335.1519 298.7236 335.8869" fill="#e6e6e6" stroke="none"/>
<path d="M 301.6183 335.8869 C 301.6183 338.2199 299.7263 340.1119 297.3933 340.1119 C 295.0603 340.1119 293.1683 338.2199 293.1683 335.8869 C 293.1683 333.5539 295.0603 331.6619 297.3933 331.6619 C 299.7263 331.6619 301.6183 333.5539 301.6183 335.8869 Z" fill="none" stroke="#d9adb0" stroke-width="0.25" stroke-linecap="butt" stroke-linejoin="miter"/>
</svg>